<svg width="47" height="51" viewBox="0 0 47 51" fill="none" xmlns="http://www.w3.org/2000/svg">
<g id="Frame 10">
<g id="Group 9">
<path id="Vector" d="M23.9512 29.0925L31.6798 23.7887C31.8945 23.2148 32.2252 22.694 32.6501 22.2608C32.6638 22.2467 32.682 22.2327 32.6956 22.2187C32.4864 22.059 32.2883 21.8845 32.1028 21.6966C31.5666 21.144 31.148 20.4832 30.8733 19.7561C30.5986 19.029 30.4739 18.2512 30.507 17.4721C29.7478 17.5028 28.9906 17.3715 28.2834 17.0865C27.5761 16.8015 26.9342 16.369 26.3981 15.8163C26.2157 15.6251 26.0466 15.421 25.8919 15.2056C25.878 15.2196 25.8644 15.2383 25.8507 15.2523C25.4372 15.6767 24.9421 16.0081 24.3969 16.2254L19.2045 24.2159C19.1038 24.371 19.0584 24.5571 19.0762 24.7427C19.094 24.9282 19.1739 25.1017 19.3022 25.2337L22.9585 28.9919C23.087 29.1241 23.2562 29.2064 23.4373 29.2247C23.6183 29.2431 23.8 29.1963 23.9512 29.0925Z" fill="#96C268"/>
<path id="Vector_2" d="M44.2775 25.5939C44.6726 25.1876 44.9861 24.7053 45.1999 24.1745C45.4138 23.6437 45.5239 23.0748 45.5239 22.5002C45.5239 21.9256 45.4138 21.3567 45.1999 20.8259C44.9861 20.2951 44.6726 19.8128 44.2775 19.4065C44.2202 19.3477 44.1629 19.2931 44.1057 19.2391C44.8297 18.6821 45.4096 17.9506 45.7943 17.1092C46.1791 16.2677 46.3568 15.3419 46.3121 14.4132C46.2673 13.4845 46.0013 12.5814 45.5375 11.7831C45.0737 10.9849 44.4262 10.3161 43.6521 9.8354C44.2012 9.01725 44.454 8.02705 44.3665 7.03707C44.2789 6.0471 43.8566 5.12001 43.173 4.4171C42.4893 3.7142 41.5877 3.27996 40.6248 3.18995C39.662 3.09994 38.699 3.35984 37.9032 3.92444C37.4702 3.18724 36.8797 2.56101 36.1764 2.09317C35.4732 1.62534 34.6756 1.32816 33.8441 1.22415C33.0126 1.12014 32.169 1.21202 31.3772 1.49283C30.5854 1.77365 29.866 2.23603 29.2737 2.84497C29.0878 3.03675 28.9153 3.24177 28.7574 3.4585C28.7049 3.39825 28.6509 3.33898 28.5946 3.28186C27.9069 2.5746 27.0044 2.1309 26.0372 2.02468C25.0701 1.91845 24.0968 2.15612 23.2794 2.69808C22.4619 3.24004 21.8498 4.05358 21.5448 5.00321C21.2399 5.95284 21.2606 6.98123 21.6034 7.91709C20.9654 8.0877 20.3741 8.40713 19.8755 8.8506C19.3769 9.29408 18.9843 9.84969 18.7283 10.4743C18.4722 11.099 18.3595 11.7759 18.399 12.4525C18.4384 13.1292 18.6289 13.7874 18.9557 14.3761C19.2825 14.9648 19.7368 15.4683 20.2833 15.8473C20.8299 16.2264 21.454 16.4709 22.1073 16.562C22.7606 16.653 23.4255 16.5881 24.0505 16.3722C24.6755 16.1564 25.2437 15.7954 25.7111 15.3173C25.7248 15.3032 25.7385 15.2844 25.7525 15.2702C25.9082 15.4875 26.0785 15.6932 26.2621 15.8861C26.8019 16.4435 27.4482 16.8797 28.1602 17.1671C28.8723 17.4545 29.6346 17.5869 30.399 17.556C30.3657 18.3417 30.4913 19.126 30.7678 19.8594C31.0444 20.5927 31.4659 21.259 32.0057 21.8163C32.1925 22.0059 32.392 22.1819 32.6028 22.3429C32.5888 22.357 32.5705 22.3712 32.5568 22.3853C32.0873 22.8653 31.7322 23.4505 31.5192 24.095C31.3062 24.7395 31.241 25.426 31.3288 26.1007C31.4166 26.7754 31.655 27.4201 32.0253 27.9844C32.3956 28.5487 32.8878 29.0173 33.4635 29.3536C34.0391 29.6898 34.6826 29.8846 35.3436 29.9228C36.0047 29.961 36.6653 29.8414 37.2739 29.5735C37.8826 29.3056 38.4227 28.8966 38.8521 28.3785C39.2815 27.8604 39.5886 27.2471 39.7493 26.5868C40.5167 26.8885 41.3527 26.9552 42.1562 26.779C42.9598 26.6028 43.6965 26.1912 44.2775 25.5939Z" fill="#96C268"/>
<path id="Vector_3" d="M37.8715 3.84467C38.0231 3.9707 38.1681 4.10506 38.3058 4.24717C38.6188 4.57097 38.8929 4.93267 39.122 5.32442C39.7756 4.8584 40.5459 4.59825 41.3397 4.57548C42.1334 4.55271 42.9166 4.7683 43.5942 5.19613C43.3088 4.71413 42.9332 4.29593 42.4892 3.96614C42.0453 3.63634 41.542 3.40159 41.009 3.27568C40.476 3.14977 39.9241 3.13525 39.3856 3.23296C38.8471 3.33067 38.333 3.53865 37.8734 3.84467H37.8715ZM29.1937 2.84185C29.0095 3.03328 28.8385 3.23781 28.682 3.45392C28.6293 3.39379 28.5759 3.33484 28.5205 3.27765C27.8379 2.57172 26.9418 2.12885 25.9816 2.02281C25.0214 1.91678 24.0551 2.15399 23.2435 2.69491C22.432 3.23584 21.8243 4.04783 21.5216 4.99563C21.2189 5.94342 21.2395 6.96979 21.5801 7.90375C20.7739 8.12104 20.0469 8.57763 19.4889 9.21714C18.931 9.85665 18.5665 10.6511 18.4404 11.5023C18.3143 12.3535 18.4323 13.2243 18.7796 14.007C19.127 14.7897 19.6885 15.4502 20.3949 15.9068C20.0404 15.3202 19.8246 14.6556 19.7648 13.9668C19.705 13.2779 19.803 12.5842 20.0509 11.9418C20.2987 11.2994 20.6895 10.7264 21.1915 10.2691C21.6935 9.81179 22.2926 9.48312 22.9403 9.30966C22.5998 8.3757 22.5791 7.34933 22.8818 6.40154C23.1845 5.45374 23.7922 4.64175 24.6038 4.10082C25.4153 3.5599 26.3817 3.32269 27.3419 3.42872C28.3021 3.53476 29.1981 3.97763 29.8808 4.68356C29.9359 4.74075 29.9896 4.7997 30.0421 4.85983C30.1986 4.64379 30.3695 4.43933 30.5537 4.24795C31.4635 3.3081 32.6641 2.72875 33.9454 2.6112C35.2267 2.49366 36.5072 2.84541 37.563 3.60493C37.1045 2.92606 36.5076 2.35931 35.8144 1.94458C35.1212 1.52985 34.3484 1.27723 33.5505 1.2045C32.7526 1.13177 31.949 1.2407 31.1962 1.52363C30.4434 1.80655 29.7598 2.25658 29.1935 2.84204L29.1937 2.84185Z" fill="#96C268"/>
<path id="Vector_4" d="M44.2885 25.6261C44.6817 25.2227 44.9935 24.7438 45.2063 24.2168C45.419 23.6897 45.5284 23.1249 45.5283 22.5544C45.5282 21.984 45.4186 21.4192 45.2057 20.8922C44.9929 20.3652 44.6809 19.8864 44.2876 19.4832C44.2321 19.4263 44.175 19.3713 44.1167 19.3174C44.3262 19.1564 44.5244 18.9806 44.71 18.7913C45.2777 18.209 45.714 17.5061 45.9883 16.7321C46.2626 15.9581 46.3681 15.1318 46.2975 14.3114C46.2269 13.4911 45.9818 12.6966 45.5796 11.9838C45.1773 11.2711 44.6277 10.6575 43.9693 10.1862C44.7058 11.2717 45.047 12.5882 44.933 13.9056C44.819 15.223 44.2573 16.4573 43.3459 17.3928C43.1603 17.5821 42.9619 17.7579 42.7524 17.9188C42.8105 17.973 42.8678 18.0279 42.9233 18.0848C43.6092 18.7878 44.039 19.7111 44.141 20.7002C44.2429 21.6893 44.0108 22.6843 43.4834 23.5189C42.9561 24.3535 42.1654 24.9771 41.2435 25.2855C40.3217 25.5939 39.3247 25.5683 38.419 25.2131C38.2555 25.8833 37.9398 26.5043 37.4977 27.0254C37.0555 27.5466 36.4995 27.9531 35.875 28.2117C35.2505 28.4704 34.5752 28.5738 33.9042 28.5137C33.2333 28.4535 32.5858 28.2314 32.0145 27.8655C32.4579 28.5956 33.1011 29.1756 33.8638 29.5332C34.6265 29.8908 35.4749 30.0102 36.3033 29.8765C37.1316 29.7428 37.9033 29.3619 38.5221 28.7813C39.1408 28.2007 39.5793 27.4461 39.7827 26.6116C40.5464 26.9111 41.3782 26.9775 42.1778 26.8026C42.9773 26.6277 43.7104 26.2191 44.2885 25.6261ZM43.1888 4.60346C42.9592 4.36795 42.7032 4.1611 42.4262 3.9872C42.8412 4.68389 43.0503 5.48905 43.0282 6.30515C43.0061 7.12126 42.7538 7.91328 42.3018 8.58529C42.8497 8.92452 43.3357 9.3593 43.7377 9.87003C44.2468 9.05994 44.47 8.09538 44.3702 7.137C44.2703 6.17863 43.8534 5.28427 43.1888 4.60287V4.60346Z" fill="#96C268"/>
<path id="Vector_5" d="M20.6716 26.7961C20.5427 26.6625 20.4624 26.4867 20.4445 26.2986C20.4265 26.1105 20.4721 25.9217 20.5734 25.7646L25.6634 17.8533C25.7439 17.7281 25.8686 17.6407 26.0106 17.6099L26.8622 17.4247C26.9441 17.4076 27.0288 17.4096 27.1099 17.4307C27.1909 17.4518 27.2665 17.4915 27.3309 17.5467C28.1899 18.2667 29.6848 18.625 30.6522 18.8201C30.5732 18.3871 30.5423 17.9463 30.56 17.506C29.6642 17.548 28.7723 17.36 27.9636 16.9587C27.1548 16.5574 26.4542 15.9552 25.924 15.2056C25.9103 15.2198 25.8965 15.2396 25.8828 15.2538C25.4672 15.6843 24.9697 16.0205 24.422 16.2409L19.2051 24.3474C19.1038 24.5046 19.0583 24.6934 19.0763 24.8815C19.0942 25.0696 19.1746 25.2454 19.3036 25.379L22.9762 29.1927C22.988 29.2051 22.9998 29.2174 23.0126 29.2286L20.6716 26.7961Z" fill="#96C268"/>
<path id="Vector_6" d="M31.6947 23.8042L24.0806 29.0926C23.9316 29.1962 23.7526 29.2429 23.5742 29.2248C23.3957 29.2067 23.2289 29.1248 23.102 28.9932L21.7971 27.6348C21.9256 27.7517 22.0876 27.8214 22.2581 27.833C22.4286 27.8446 22.598 27.7974 22.74 27.6988L30.3541 22.4103C30.5653 21.8378 30.8909 21.3184 31.3095 20.8864C31.314 20.8818 31.3542 20.8531 31.4087 20.8148C31.6125 21.14 31.8482 21.4422 32.1122 21.7167C32.2946 21.9043 32.4896 22.0784 32.6957 22.2375C32.6824 22.2515 32.6635 22.2655 32.6501 22.2793C32.2314 22.7116 31.9057 23.2314 31.6947 23.8042Z" fill="#96C268"/>
<path id="Vector_7" d="M27.7954 43.8394L22.6427 35.8835C22.0851 35.6626 21.5792 35.3222 21.1584 34.8847C21.1448 34.8706 21.1311 34.8519 21.1175 34.8378C20.9624 35.0532 20.7929 35.2571 20.6103 35.4481C20.0734 36 19.4315 36.431 18.7251 36.7137C18.0187 36.9965 17.2631 37.1248 16.5062 37.0908C16.536 37.8722 16.4084 38.6516 16.1316 39.3796C15.8547 40.1076 15.4345 40.7684 14.8976 41.3203C14.7119 41.5081 14.5136 41.6823 14.3043 41.8415C14.3179 41.8556 14.3361 41.8696 14.3497 41.8837C14.762 42.3095 15.0839 42.8192 15.295 43.3804L23.0575 48.7248C23.2082 48.8286 23.3891 48.8753 23.5693 48.8569C23.7496 48.8386 23.9182 48.7564 24.0464 48.6243L27.6974 44.8616C27.8259 44.7293 27.9058 44.555 27.9237 44.3686C27.9416 44.1822 27.8962 43.9951 27.7954 43.8394Z" fill="#96C268"/>
<path id="Vector_8" d="M24.3953 22.8645C24.0007 22.4676 23.5322 22.1528 23.0165 21.938C22.5009 21.7233 21.9482 21.6127 21.3901 21.6127C20.832 21.6127 20.2793 21.7233 19.7637 21.938C19.2481 22.1528 18.7796 22.4676 18.3849 22.8645C18.3277 22.922 18.2747 22.9795 18.2223 23.038C18.065 22.8262 17.8929 22.6259 17.7075 22.4385C17.1159 21.8437 16.3975 21.3921 15.6066 21.1178C14.8157 20.8436 13.9731 20.7538 13.1426 20.8554C12.3122 20.957 11.5155 21.2473 10.8131 21.7042C10.1107 22.1612 9.52093 22.7728 9.08841 23.4929C8.29365 22.9414 7.33176 22.6875 6.37009 22.7755C5.40842 22.8634 4.50784 23.2875 3.82503 23.9741C3.14223 24.6606 2.72041 25.5661 2.63297 26.5331C2.54553 27.5 2.798 28.4672 3.34646 29.2663C2.57281 29.7354 1.92571 30.3885 1.46212 31.1682C0.998533 31.9479 0.732664 32.8302 0.687918 33.7375C0.643171 34.6448 0.82092 35.5492 1.20552 36.3712C1.59012 37.1931 2.16977 37.9074 2.89346 38.4512C2.83493 38.5039 2.77735 38.5582 2.72187 38.6147C2.03496 39.3054 1.60411 40.2119 1.50109 41.1832C1.39807 42.1544 1.6291 43.1319 2.15569 43.9527C2.68229 44.7735 3.47266 45.3881 4.39518 45.6943C5.3177 46.0004 6.31667 45.9794 7.22571 45.635C7.39144 46.2758 7.70173 46.8695 8.13253 47.3703C8.56332 47.871 9.10305 48.2652 9.70983 48.5224C10.3166 48.7795 10.9742 48.8927 11.6315 48.8531C12.2888 48.8135 12.9282 48.6222 13.5 48.294C14.0719 47.9658 14.561 47.5096 14.9292 46.9607C15.2974 46.4118 15.535 45.785 15.6234 45.1289C15.7118 44.4728 15.6487 43.8051 15.4391 43.1774C15.2294 42.5498 14.8788 41.9792 14.4143 41.5098C14.4006 41.496 14.3823 41.4822 14.3686 41.4684C14.5796 41.312 14.7795 41.1409 14.9669 40.9565C15.5083 40.4145 15.932 39.7653 16.2111 39.0502C16.4903 38.3351 16.6189 37.5695 16.5888 36.8018C17.3521 36.8353 18.1141 36.7092 18.8264 36.4315C19.5388 36.1538 20.1862 35.7304 20.7275 35.1883C20.9116 35.0007 21.0826 34.8004 21.239 34.5888C21.2528 34.6026 21.2665 34.621 21.2802 34.6348C21.7465 35.1062 22.315 35.4628 22.941 35.6767C23.5671 35.8905 24.2339 35.9559 24.8893 35.8677C25.5447 35.7795 26.171 35.5401 26.7191 35.1682C27.2672 34.7963 27.7224 34.302 28.049 33.7239C28.3756 33.1459 28.5649 32.4997 28.6019 31.8358C28.639 31.172 28.5229 30.5086 28.2627 29.8974C28.0025 29.2861 27.6052 28.7437 27.1019 28.3124C26.5987 27.8812 26.003 27.5728 25.3616 27.4114C25.6543 26.6406 25.7188 25.8011 25.5474 24.9942C25.3759 24.1874 24.9758 23.4477 24.3953 22.8645Z" fill="#96C268"/>
<path id="Vector_9" d="M3.26736 29.3499C3.39 29.1983 3.52072 29.0534 3.65896 28.9158C3.97349 28.6023 4.32489 28.3278 4.70551 28.0984C4.25277 27.4438 4.00003 26.6723 3.97791 25.8773C3.95579 25.0824 4.16523 24.2981 4.58087 23.6194C4.11253 23.9051 3.70617 24.2813 3.38567 24.7259C3.06518 25.1705 2.83703 25.6745 2.71462 26.2083C2.59221 26.7421 2.57801 27.2949 2.67287 27.8342C2.76773 28.3736 2.96972 28.8885 3.26698 29.3489L3.26736 29.3499ZM2.29311 38.0408C2.47906 38.2253 2.67775 38.3965 2.88774 38.5532C2.82933 38.6058 2.77205 38.6593 2.71649 38.7147C2.03068 39.3984 1.60043 40.2958 1.49742 41.2575C1.39441 42.2191 1.62485 43.187 2.15037 43.9997C2.67588 44.8125 3.46473 45.4212 4.38551 45.7243C5.30629 46.0274 6.30341 46.0068 7.21076 45.6657C7.42144 46.4734 7.86482 47.2019 8.48609 47.761C9.10735 48.3201 9.87927 48.6854 10.7064 48.8117C11.5336 48.9379 12.3797 48.8197 13.1402 48.4715C13.9007 48.1233 14.5422 47.5605 14.9855 46.8526C14.4157 47.2076 13.77 47.4238 13.1008 47.4837C12.4317 47.5435 11.7577 47.4453 11.1337 47.1971C10.5096 46.9489 9.95292 46.5576 9.50868 46.0548C9.06443 45.5521 8.74513 44.9521 8.57661 44.3034C7.66926 44.6446 6.6721 44.6654 5.75125 44.3623C4.83041 44.0592 4.04149 43.4506 3.51595 42.6378C2.9904 41.825 2.75996 40.8571 2.86302 39.8954C2.96608 38.9337 3.39642 38.0363 4.08234 37.3526C4.13771 37.2972 4.19517 37.2437 4.25359 37.1909C4.04363 37.0342 3.84494 36.8629 3.65896 36.6785C2.74595 35.7673 2.18317 34.5649 2.06901 33.2817C1.95485 31.9984 2.29658 30.716 3.03445 29.6586C2.37493 30.1178 1.82432 30.7156 1.42142 31.4099C1.01851 32.1041 0.773085 32.8781 0.702429 33.6772C0.631772 34.4763 0.737598 35.2811 1.01246 36.035C1.28732 36.789 1.72453 37.4736 2.2933 38.0408H2.29311Z" fill="#96C268"/>
<path id="Vector_10" d="M2.72461 29.9298C2.94743 29.7729 3.1766 29.6225 3.40577 29.4803C3.34901 29.398 3.29436 29.3131 3.24353 29.2286C3.05884 29.4575 2.88727 29.6928 2.72461 29.9298Z" fill="#4BDBC3"/>
<path id="Vector_11" d="M24.3157 22.9061C23.9133 22.5014 23.4355 22.1803 22.9097 21.9613C22.3838 21.7422 21.8202 21.6295 21.2511 21.6295C20.6819 21.6295 20.1183 21.7422 19.5925 21.9613C19.0666 22.1803 18.5888 22.5014 18.1864 22.9061C18.1296 22.9632 18.0748 23.022 18.0207 23.082C17.8602 22.8663 17.6848 22.6622 17.4958 22.4711C16.9149 21.8868 16.2135 21.4376 15.4413 21.1552C14.669 20.8728 13.8446 20.7641 13.0261 20.8367C12.2075 20.9093 11.4148 21.1614 10.7036 21.5754C9.9924 21.9893 9.3801 22.555 8.90978 23.2326C9.99302 22.4748 11.3066 22.1242 12.621 22.2418C13.9353 22.3594 15.1667 22.9379 16.0998 23.8761C16.2888 24.0671 16.4642 24.2711 16.6247 24.4868C16.6786 24.427 16.7336 24.3682 16.7903 24.3109C17.4918 23.605 18.413 23.1626 19.3998 23.0577C20.3867 22.9528 21.3795 23.1916 22.2122 23.7344C23.045 24.2772 23.6672 25.091 23.9749 26.0397C24.2826 26.9884 24.2572 28.0147 23.9028 28.9468C24.5715 29.1151 25.1912 29.4401 25.7111 29.8952C26.2311 30.3503 26.6367 30.9227 26.8947 31.5655C27.1528 32.2083 27.256 32.9033 27.196 33.5939C27.1359 34.2845 26.9143 34.951 26.5493 35.539C27.2776 35.0825 27.8563 34.4205 28.213 33.6355C28.5698 32.8505 28.6889 31.9773 28.5555 31.1248C28.4221 30.2722 28.0421 29.478 27.4629 28.8411C26.8837 28.2042 26.1308 27.7529 25.2983 27.5433C25.5972 26.7575 25.6635 25.9015 25.4891 25.0786C25.3148 24.2557 24.9072 23.5011 24.3157 22.9061ZM3.33951 24.038C3.10452 24.2743 2.89812 24.5378 2.72461 24.8229C3.41978 24.3959 4.22315 24.1807 5.03745 24.2034C5.85174 24.2261 6.64201 24.4858 7.31255 24.9509C7.54757 24.5599 7.8287 24.1989 8.14985 23.8757C8.29078 23.7337 8.4392 23.5994 8.59445 23.4734C7.78619 22.9493 6.82379 22.7196 5.86753 22.8223C4.91127 22.925 4.01886 23.3541 3.33893 24.038H3.33951Z" fill="#96C268"/>
<path id="Vector_12" d="M25.0014 47.2156C24.878 47.3484 24.7157 47.431 24.5421 47.4495C24.3685 47.468 24.1943 47.4212 24.0492 47.317L16.7479 42.077C16.6324 41.994 16.5517 41.8656 16.5232 41.7193L16.3523 40.8427C16.3365 40.7583 16.3384 40.6713 16.3579 40.5878C16.3774 40.5044 16.414 40.4266 16.4649 40.3604C17.1295 39.4759 17.4602 37.9371 17.6402 36.9413C17.2406 37.0224 16.8337 37.0541 16.4274 37.036C16.456 37.8212 16.333 38.6042 16.066 39.3356C15.799 40.0671 15.3939 40.7309 14.8763 41.2852C14.6973 41.4739 14.5061 41.6489 14.3043 41.8087C14.3174 41.8227 14.3357 41.8368 14.3488 41.8509C14.7462 42.2787 15.0565 42.7908 15.2598 43.3548L22.7414 48.7242C22.8865 48.8285 23.0607 48.8753 23.2343 48.8569C23.4079 48.8384 23.5702 48.7557 23.6935 48.6228L27.2132 44.8428C27.2247 44.8306 27.236 44.8184 27.2464 44.8053L25.0014 47.2156Z" fill="#96C268"/>
<path id="Vector_13" d="M22.6578 35.8682L27.7954 43.7056C27.896 43.859 27.9414 44.0432 27.9238 44.2269C27.9062 44.4105 27.8267 44.5823 27.6988 44.7129L26.3791 46.0562C26.4927 45.9239 26.5604 45.7571 26.5716 45.5816C26.5829 45.4061 26.5371 45.2318 26.4413 45.0855L21.3035 37.2482C20.7474 37.0308 20.2429 36.6956 19.8232 36.2646C19.8186 36.26 19.7906 36.2187 19.7536 36.1625C20.0695 35.9529 20.3632 35.7102 20.6297 35.4385C20.8121 35.2507 20.9812 35.05 21.1358 34.8378C21.1493 34.8517 21.1629 34.8709 21.1763 34.8847C21.5963 35.3157 22.1013 35.6509 22.6578 35.8682Z" fill="#96C268"/>
<path id="Vector_14" d="M47 14.7205C47.0022 13.7423 46.788 12.7765 46.3738 11.8973C45.9596 11.0181 45.3564 10.2488 44.6106 9.64847C46.5884 5.39381 42.2554 0.905978 38.1483 2.95806C37.6071 2.23939 36.9247 1.64802 36.1461 1.22315C35.3676 0.798283 34.5107 0.549611 33.6324 0.493613C32.754 0.437616 31.8742 0.575574 31.0512 0.898343C30.2282 1.22111 29.4809 1.72132 28.8587 2.36583C28.8474 2.37951 28.8342 2.39124 28.8229 2.40296C27.8683 1.62251 26.6703 1.23199 25.4562 1.30549C24.2421 1.37898 23.0962 1.91138 22.236 2.80169C21.6558 3.40465 21.229 4.14704 20.9935 4.96253C20.758 5.77802 20.7213 6.64122 20.8865 7.47501C20.3122 7.73205 19.7898 8.09872 19.3464 8.55588C16.2006 11.8004 18.4269 17.3572 22.8154 17.4041L20.5147 20.977C19.658 21.1068 18.8495 21.4682 18.1706 22.0247C17.5503 21.3721 16.8027 20.8643 15.9776 20.5349C15.1526 20.2056 14.2692 20.0624 13.3865 20.115C12.5038 20.1675 11.642 20.4146 10.8589 20.8396C10.0757 21.2647 9.38921 21.8579 8.84518 22.5797C4.72602 20.5261 0.408695 25.0262 2.38287 29.2702C-0.949447 31.9725 -0.460999 36.8798 1.84875 38.9276C1.09421 39.9156 0.716364 41.1562 0.786997 42.4137C0.857629 43.6713 1.37181 44.8582 2.23188 45.7489C2.81374 46.3503 3.5305 46.793 4.31803 47.0372C5.10556 47.2814 5.93927 47.3196 6.74455 47.1484C8.90255 52.3176 16.2776 50.6394 16.3323 45.1489L22.6153 49.488C22.9107 49.6921 23.2652 49.7839 23.6186 49.748C23.9719 49.712 24.3023 49.5503 24.5536 49.2906L28.1981 45.5222C28.4495 45.2615 28.6061 44.9188 28.6412 44.5522C28.6763 44.1856 28.5877 43.8177 28.3906 43.511L24.2215 37.0512C25.2458 37.0353 26.2407 36.6939 27.0715 36.0731C27.9023 35.4524 28.5288 34.5822 28.8664 33.5805C29.2039 32.5788 29.2361 31.4939 28.9586 30.4727C28.6811 29.4514 28.1073 28.5431 27.3149 27.8707L30.6366 25.5702C30.6527 26.7572 31.0623 27.9024 31.7968 28.8138C32.5312 29.7253 33.5459 30.3476 34.6707 30.5764C35.7955 30.8053 36.9621 30.6268 37.9749 30.0708C38.9878 29.5149 39.7853 28.6153 40.2338 27.5228C44.7676 28.5055 48.0216 23.0545 45.1447 19.3059C46.075 18.4816 47 16.6885 47 14.7205ZM27.1318 44.4159C27.108 44.4404 23.4794 48.2097 23.4533 48.1882L15.8926 42.9657C15.7497 42.6355 15.5738 42.3217 15.3679 42.0294C16.44 40.9453 17.1004 39.4984 17.2288 37.9522C18.8399 37.8144 20.3505 36.9879 21.1753 36.0407C21.4688 36.2654 21.7853 36.4562 22.119 36.6095C22.1382 36.64 27.1563 44.3905 27.1318 44.4165V44.4159ZM27.6357 31.8834C27.6343 32.5983 27.4281 33.2968 27.0432 33.8904C26.6584 34.484 26.1121 34.946 25.4737 35.218C24.8352 35.49 24.1332 35.5598 23.4564 35.4185C22.7796 35.2772 22.1585 34.9312 21.6717 34.4243C21.5986 34.3351 21.5072 34.264 21.4041 34.2163C21.301 34.1686 21.1889 34.1455 21.076 34.1487C20.9632 34.1519 20.8524 34.1813 20.752 34.2347C20.6516 34.2882 20.564 34.3643 20.4958 34.4575C20.0407 35.0966 19.4399 35.609 18.747 35.949C18.0541 36.2891 17.2906 36.4461 16.5248 36.4062C16.4208 36.4015 16.3171 36.4192 16.22 36.4582C16.123 36.4972 16.0348 36.5565 15.961 36.6326C15.8872 36.7086 15.8295 36.7996 15.7914 36.9C15.7533 37.0003 15.7357 37.1077 15.7397 37.2154C15.7727 38.0084 15.6168 38.7976 15.2857 39.5134C14.9545 40.2292 14.4584 40.8496 13.841 41.3199C13.5251 41.5652 13.3762 42.092 13.8184 42.5513C14.1519 42.8994 14.4122 43.3154 14.5827 43.7729C14.5827 43.7748 14.5846 43.7748 14.5846 43.7768C15.9492 47.3833 11.5303 50.4199 8.86028 47.639C8.4227 47.1852 8.11053 46.6182 7.95623 45.9972C7.92966 45.891 7.88182 45.7919 7.81583 45.7061C7.74984 45.6204 7.66717 45.5499 7.57319 45.4994C7.47922 45.4489 7.37603 45.4195 7.27034 45.413C7.16465 45.4064 7.05881 45.423 6.95971 45.4616C6.33823 45.7027 5.66295 45.7539 5.01418 45.6091C4.36542 45.4643 3.77048 45.1295 3.30013 44.6446C2.97942 44.3127 2.72501 43.9185 2.55144 43.4847C2.37787 43.0509 2.28853 42.586 2.28853 42.1164C2.28853 41.6468 2.37787 41.1819 2.55144 40.7481C2.72501 40.3143 2.97942 39.9201 3.30013 39.5882C3.48886 39.3927 3.70685 39.2364 3.69081 38.8337C3.67042 38.3355 3.33749 38.2644 2.88113 37.7861C2.37724 37.2632 1.9947 36.6286 1.76244 35.9301C1.53018 35.2316 1.45426 34.4876 1.54044 33.7543C1.62661 33.021 1.87261 32.3175 2.25986 31.6971C2.6471 31.0767 3.16545 30.5556 3.77574 30.1732C3.86376 30.1178 3.93994 30.0443 3.99961 29.9574C4.05927 29.8705 4.10116 29.7718 4.12272 29.6675C4.14428 29.5632 4.14504 29.4554 4.12497 29.3508C4.1049 29.2462 4.06442 29.1469 4.006 29.0591C3.56372 28.3949 3.36022 27.5911 3.4309 26.7877C3.50158 25.9842 3.84196 25.2318 4.39285 24.6613C4.94374 24.0908 5.67028 23.7383 6.44614 23.6651C7.222 23.5919 7.9981 23.8026 8.63946 24.2607C8.72445 24.3214 8.82053 24.3634 8.92179 24.3843C9.02306 24.4051 9.12737 24.4043 9.22831 24.3818C9.75017 24.2646 9.6575 23.8785 10.4155 23.0938C11.2988 22.1822 12.4949 21.6704 13.7419 21.6704C14.9889 21.6704 16.1851 22.1822 17.0684 23.0938C17.5434 23.5918 17.6063 23.9137 18.08 23.9342C18.526 23.9538 18.6651 23.6446 18.9746 23.3674C19.5546 22.8417 20.2877 22.5321 21.0573 22.488C21.8269 22.4439 22.5885 22.6678 23.221 23.124C23.8534 23.5802 24.3202 24.2424 24.547 25.0053C24.7738 25.7681 24.7476 26.5876 24.4725 27.3332C24.4343 27.4366 24.4178 27.5471 24.424 27.6576C24.4302 27.768 24.4589 27.8759 24.5083 27.974C24.5577 28.0721 24.6267 28.1582 24.7106 28.2267C24.7946 28.2951 24.8916 28.3443 24.9953 28.3711C25.7513 28.5667 26.4221 29.019 26.9008 29.6557C27.3794 30.2925 27.6381 31.077 27.6357 31.884V31.8834ZM31.0631 23.3967L31.0613 23.3987L26.156 26.7937C26.1914 26.5512 26.2091 26.3061 26.2089 26.0608C26.2106 24.8851 25.8224 23.7444 25.1091 22.8296C24.3959 21.9149 23.4009 21.2815 22.2907 21.0357L24.9236 16.9487C24.9273 16.9467 24.9292 16.9448 24.933 16.9448C25.2487 16.7981 25.5486 16.6173 25.8276 16.4053C26.8758 17.5145 28.2734 18.1976 29.7665 18.3306C29.8888 19.8776 30.5431 21.3278 31.6105 22.4175C31.3934 22.722 31.2098 23.0507 31.0631 23.3973V23.3967ZM43.5537 19.8277C46.4121 22.5508 43.5269 27.2228 40.0187 25.8321C39.9189 25.7931 39.8124 25.7765 39.706 25.7831C39.5997 25.7898 39.4958 25.8197 39.4014 25.8708C39.3069 25.9219 39.224 25.9931 39.158 26.0797C39.092 26.1664 39.0444 26.2665 39.0184 26.3735C38.9023 26.8517 38.693 27.3002 38.4033 27.6915C38.1136 28.0827 37.7497 28.4085 37.3339 28.6487C36.9181 28.8889 36.4593 29.0384 35.9856 29.0881C35.5119 29.1378 35.0335 29.0866 34.5796 28.9377C34.1258 28.7888 33.7061 28.5453 33.3465 28.2221C32.9869 27.899 32.695 27.5031 32.4887 27.0588C32.2823 26.6145 32.1659 26.1311 32.1467 25.6385C32.1274 25.1458 32.2057 24.6543 32.3767 24.1942C32.8495 22.9169 33.4829 22.9675 33.4374 22.2846C33.4042 21.7921 33.0836 21.7324 32.6278 21.2604C32.166 20.783 31.8058 20.2109 31.5701 19.5808C31.3345 18.9506 31.2287 18.2765 31.2594 17.6015C31.2637 17.4939 31.2464 17.3865 31.2086 17.2862C31.1709 17.1858 31.1136 17.0946 31.0402 17.0182C30.9669 16.9419 30.8791 16.8821 30.7823 16.8425C30.6856 16.803 30.582 16.7846 30.4781 16.7884C29.7125 16.823 28.9504 16.662 28.2592 16.3194C27.568 15.9768 26.9688 15.4633 26.5146 14.8241C26.4468 14.7303 26.3594 14.6534 26.2589 14.5994C26.1585 14.5453 26.0476 14.5154 25.9344 14.5118C25.8212 14.5082 25.7088 14.5311 25.6053 14.5788C25.5019 14.6264 25.4101 14.6976 25.3369 14.787H25.335C24.9975 15.1381 24.5923 15.4118 24.146 15.5903C24.1441 15.5903 24.1441 15.5922 24.1422 15.5922C23.6991 15.7716 23.2253 15.8552 22.7498 15.8379C22.2744 15.8207 21.8073 15.703 21.3774 15.492C20.9475 15.281 20.5638 14.9812 20.2499 14.611C19.9359 14.2408 19.6984 13.8081 19.5519 13.3393C19.4054 12.8706 19.3529 12.3758 19.3978 11.8853C19.4427 11.3948 19.5839 10.919 19.8128 10.4871C20.0418 10.0553 20.3535 9.67641 20.729 9.37388C21.1045 9.07134 21.5358 8.8515 21.9963 8.72788C22.0988 8.70039 22.1947 8.65089 22.2776 8.5826C22.3605 8.51431 22.4286 8.42875 22.4775 8.33146C22.5264 8.23417 22.5551 8.12732 22.5616 8.01783C22.5681 7.90834 22.5523 7.79865 22.5153 7.69588C22.2309 6.91511 22.2191 6.05591 22.4821 5.26711C22.745 4.47831 23.2661 3.80962 23.9551 3.37687C24.6441 2.94413 25.4575 2.7746 26.2545 2.89765C27.0515 3.02071 27.7818 3.42859 28.3189 4.05065C28.3933 4.1369 28.4852 4.20498 28.5881 4.25C28.6909 4.29502 28.8022 4.31585 28.9137 4.31099C29.0253 4.30613 29.1344 4.2757 29.2333 4.22189C29.3321 4.16809 29.4182 4.09224 29.4853 3.99983C29.6198 3.81353 29.7668 3.63719 29.9251 3.4721C30.4297 2.94943 31.0426 2.55255 31.7173 2.31154C32.3921 2.07053 33.1109 1.9917 33.8194 2.08103C34.5279 2.17036 35.2075 2.4255 35.8066 2.82713C36.4058 3.22876 36.9088 3.76634 37.2776 4.39914C37.3308 4.49069 37.4015 4.56997 37.4854 4.63205C37.5694 4.69413 37.6647 4.7377 37.7656 4.76006C37.8664 4.78242 37.9707 4.78308 38.0718 4.76202C38.1729 4.74095 38.2688 4.6986 38.3534 4.6376C38.995 4.17973 39.7713 3.9692 40.5472 4.04262C41.3232 4.11604 42.0497 4.46876 42.6006 5.03945C43.1514 5.61014 43.4917 6.36271 43.5623 7.16631C43.6329 7.96991 43.4293 8.77372 42.9869 9.43796C42.9284 9.52561 42.8878 9.62473 42.8677 9.72923C42.8476 9.83373 42.8483 9.94139 42.8699 10.0456C42.8915 10.1498 42.9334 10.2483 42.9931 10.335C43.0528 10.4218 43.1291 10.495 43.2172 10.5501C43.8275 10.9328 44.3459 11.4541 44.7332 12.0746C45.1204 12.6952 45.3664 13.3988 45.4526 14.1323C45.5388 14.8657 45.4628 15.6099 45.2306 16.3085C44.9983 17.0071 44.6157 17.642 44.1118 18.165C43.9531 18.329 43.7834 18.4812 43.6041 18.6204C43.5147 18.6898 43.4414 18.7789 43.3893 18.8812C43.3373 18.9835 43.3077 19.0965 43.3029 19.212C43.2981 19.3276 43.3181 19.4428 43.3614 19.5493C43.4048 19.6559 43.4705 19.7512 43.5537 19.8283V19.8277Z" fill="#2B2927"/>
<path id="Vector_15" d="M42.6643 16.735C41.9922 16.2312 41.1289 17.3527 41.7842 17.8703C42.4628 18.4099 43.3535 17.2504 42.6643 16.735Z" fill="#5F266D"/>
<path id="Vector_16" d="M43.5934 14.3548C43.5055 12.1831 41.8988 11.1296 41.8308 11.0851C41.6757 10.9898 41.4963 10.9726 41.331 11.0371C41.1657 11.1017 41.0277 11.2427 40.9465 11.4301C40.8654 11.6175 40.8476 11.8363 40.897 12.0396C40.9463 12.2428 41.0589 12.4143 41.2106 12.5173C41.2206 12.5254 42.2188 13.198 42.2685 14.4338C42.2769 14.6415 42.3501 14.8374 42.4733 14.981C42.5964 15.1246 42.7599 15.205 42.9301 15.2056C42.9418 15.2056 42.9534 15.2036 42.9633 15.2036C43.139 15.1931 43.3041 15.0978 43.4222 14.9386C43.5404 14.7794 43.602 14.5694 43.5934 14.3548Z" fill="#5F266D"/>
<path id="Vector_17" d="M15.1703 24.5733C14.4389 25.2669 16.0636 26.1612 16.8264 25.479C17.6107 24.7835 15.9164 23.8707 15.1703 24.5733Z" fill="#5F266D"/>
<path id="Vector_18" d="M10.3004 25.4275C9.90215 26.2201 11.045 26.8485 11.4556 26.0639C11.4605 26.0537 12.0047 25.0293 13.0014 24.9782C13.0873 24.9738 13.1715 24.9519 13.2492 24.9136C13.3269 24.8753 13.3966 24.8214 13.4543 24.755C13.5119 24.6886 13.5565 24.611 13.5853 24.5267C13.6142 24.4424 13.6267 24.3529 13.6223 24.2635C13.5599 22.9668 11.1169 23.7671 10.3004 25.4275Z" fill="#5F266D"/>
</g>
</g>
</svg>
