<svg width="229" height="136" viewBox="0 0 229 136" fill="none" xmlns="http://www.w3.org/2000/svg">
<g id="Group">
<path id="Vector" d="M1 134.785C69.4343 134.701 197.627 136.122 243.679 134.785" stroke="#383747" stroke-linecap="round" stroke-linejoin="round"/>
<path id="Vector_2" d="M107.484 29.5669C115.484 29.5669 121.968 23.1721 121.968 15.2835C121.968 7.39486 115.484 1 107.484 1C99.4848 1 93 7.39486 93 15.2835C93 23.1721 99.4848 29.5669 107.484 29.5669Z" stroke="#383747" stroke-linecap="round" stroke-linejoin="round"/>
<path id="Vector_3" d="M17.9361 135.208C17.3148 131.106 17.0019 126.963 17 122.814C17 71.5552 59.1487 30 111.143 30C163.137 30 205.286 71.5552 205.286 122.814C205.286 126.776 205.035 131.38 204.542 135.208H17.9361Z" fill="#FAA41A" stroke="#383747" stroke-linecap="round" stroke-linejoin="round"/>
<path id="Vector_4" d="M171.768 63.2076C186.896 75.6442 197.335 93.4134 200.059 113.556" stroke="white" stroke-linecap="round" stroke-linejoin="round"/>
</g>
</svg>
