<svg width="149" height="25" viewBox="0 0 149 25" fill="none" xmlns="http://www.w3.org/2000/svg">
<g id="Group 15">
<path id="Star 2" d="M12.0703 0.179443L14.7644 8.47124H23.4829L16.4295 13.5959L19.1237 21.8876L12.0703 16.763L5.01683 21.8876L7.711 13.5959L0.657574 8.47124H9.37608L12.0703 0.179443Z" fill="#FDC913"/>
<path id="Star 3" d="M43.0703 0.179443L45.7644 8.47124H54.4829L47.4295 13.5959L50.1237 21.8876L43.0703 16.763L36.0168 21.8876L38.711 13.5959L31.6576 8.47124H40.3761L43.0703 0.179443Z" fill="#FDC913"/>
<path id="Star 4" d="M74.0703 0.179443L76.7644 8.47124H85.4829L78.4295 13.5959L81.1237 21.8876L74.0703 16.763L67.0168 21.8876L69.711 13.5959L62.6576 8.47124H71.3761L74.0703 0.179443Z" fill="#FDC913"/>
<path id="Star 5" d="M105.07 0.179443L107.764 8.47124H116.483L109.43 13.5959L112.124 21.8876L105.07 16.763L98.0168 21.8876L100.711 13.5959L93.6576 8.47124H102.376L105.07 0.179443Z" fill="#FDC913"/>
<path id="Star 6" d="M136.07 0.179443L138.764 8.47124H147.483L140.43 13.5959L143.124 21.8876L136.07 16.763L129.017 21.8876L131.711 13.5959L124.658 8.47124H133.376L136.07 0.179443Z" fill="#FDC913"/>
</g>
</svg>
