<svg width="25" height="26" viewBox="0 0 25 26" fill="none" xmlns="http://www.w3.org/2000/svg">
<g id="twitter">
<path id="Vector" d="M22.4302 7.90791C22.446 8.12998 22.446 8.3521 22.446 8.57417C22.446 15.3476 17.2906 23.1522 7.86802 23.1522C4.96509 23.1522 2.26841 22.3114 0 20.8521C0.412451 20.8997 0.808984 20.9155 1.2373 20.9155C3.63257 20.9155 5.83755 20.1065 7.59834 18.7265C5.3458 18.6789 3.45811 17.2036 2.80771 15.1731C3.125 15.2207 3.44224 15.2524 3.77539 15.2524C4.2354 15.2524 4.69546 15.189 5.12373 15.078C2.77603 14.602 1.01519 12.5399 1.01519 10.0494V9.98599C1.69727 10.3667 2.49048 10.6046 3.33115 10.6363C1.95107 9.71626 1.04692 8.14585 1.04692 6.36919C1.04692 5.41743 1.30068 4.54497 1.74487 3.78354C4.26709 6.89268 8.05835 8.9231 12.3096 9.14522C12.2303 8.7645 12.1827 8.36797 12.1827 7.97139C12.1827 5.14775 14.4669 2.84766 17.3064 2.84766C18.7816 2.84766 20.1141 3.46631 21.05 4.46567C22.208 4.2436 23.3184 3.81528 24.302 3.22837C23.9212 4.41812 23.1122 5.41748 22.0494 6.05195C23.0805 5.94097 24.0799 5.65537 24.9999 5.25884C24.302 6.27402 23.4295 7.17817 22.4302 7.90791Z" fill="white"/>
</g>
</svg>
